# xmcd
#
# Track frame offsets: 
#        150
#        24565
#        55137
#        72605
#        88217
#        103710
#        129057
#        149180
#        177630
#        205270
#        241812
#        264667
#
# Disc length: 3815 seconds
#
# Revision: 2
# Processed by: cddbd v1.5.2PL0 Copyright (c) Steve Scherf et al.
# Submitted via: ExactAudioCopy v0.99pb5
#
DISCID=b80ee50c
DTITLE=Freddy Cole - A Circle Of Love
DYEAR=1996
DGENRE=Jazz
TTITLE0=You're Nice To Be Around
TTITLE1=Manhã De Carnaval
TTITLE2=They Didn't Believe Me
TTITLE3=How Little We Know
TTITLE4=I Wonder Who My Daddy Is
TTITLE5=A Circle Of Love
TTITLE6=Never Let Me Go
TTITLE7=All Too Soon
TTITLE8=If I Had You
TTITLE9=Angel Eyes
TTITLE10=Temptation
TTITLE11=September Morn
EXTD=YEAR: 1996
EXTT0=Freddy Cole:\tVocal\nCyrus Chestnut:\tPiano\nJoe Locke:\tVibraph
EXTT0=one\nMel Martin:\tAlto Flute\nGeorge Mraz:\tBass\nSteve Berrios:
EXTT0=\tDrums\n
EXTT1=Freddy Cole:\tVocal\nLarry Willis:\tPiano\nJerry Byrd:\tGuitar\n
EXTT1=Tom Hubbard:\tBass, Bass Guitar\nSteve Berrios:\tDrums\n
EXTT2=Freddy Cole:\tVocal\nCyrus Chestnut:\tPiano\nGeorge Mraz:\tBass\n
EXTT2=Steve Berrios:\tDrums\n
EXTT3=Freddy Cole:\tPiano, Vocal\nTom Hubbard:\tBass\nSteve Berrios:\t
EXTT3=Congas\n
EXTT4=Freddy Cole:\tPiano, Vocal\nTom Hubbard:\tBass Guitar\nSteve Ber
EXTT4=rios:\tDrums\n
EXTT5=Freddy Cole:\tVocal\nDon Braden:\tSoprano Saxophone\nJerry Byrd:
EXTT5=\tGuitar\nLarry Willis:\tPiano\nTom Hubbard:\tBass\nSteve Berrio
EXTT5=s:\tDrums\n
EXTT6=Freddy Cole:\tVocal\nLarry Willis:\tPiano
EXTT7=Freddy Cole:\tVocal\nDanny Moore:\tTrumpet\nJerry Byrd:\tGuitar\n
EXTT7=Larry Willis:\tPiano\nTom Hubbard:\tBass\nSteve Berrios:\tDrums\n
EXTT8=Freddy Cole:\tVocal\nCyrus Chestnut:\tPiano\nGeorge Mraz:\tBass\n
EXTT8=Steve Berrios:\tDrums\n
EXTT9=Freddy Cole:\tVocal\nDanny Moore:\tTrumpet\nJerry Byrd:\tGuitar\n
EXTT9=Larry Willis:\tPiano\nTom Hubbard:\tBass\nSteve Berrios:\tDrums\n
EXTT10=Freddy Cole:\tVocal\nJoe Ford:\t\tSoprano Saxophone\nJerry Byrd
EXTT10=:\tGuitar\nLarry Willis:\tPiano\nTom Hubbard:\tBass\nSteve Berr
EXTT10=ios:\tDrums\n
EXTT11=Freddy Cole:\tVocal\nLarry Willis:\tPiano\nTom Hubbard:\tBass\n
EXTT11=Steve Berrios:\tDrums\n
PLAYORDER=
